<svg width="47px" height="21px" viewBox="0 0 47 21" version="1.1" xmlns="http://www.w3.org/2000/svg" xmlns:xlink="http://www.w3.org/1999/xlink">
    <path d="M36.9822727,17.243254 C35.3917854,17.243254 33.8997343,16.7243532 32.6667538,15.7422462 L32.6601333,15.7352201 L26.0002613,10.491889 L32.6601333,5.2482151 L32.8049131,5.13391298 C34.009321,4.22275203 35.4496276,3.74206622 36.9822727,3.74206622 C40.7671066,3.74206622 43.8461605,6.76995842 43.8461605,10.491889 C43.8461605,14.214505 40.7671066,17.243254 36.9822727,17.243254 M3.13602509,10.491889 C3.13602509,6.77115799 6.21194303,3.7437799 9.99381506,3.74052391 C11.5813407,3.74223759 13.0707783,4.26130972 14.3088114,5.24735826 L20.9679864,10.4910321 L14.289821,15.7473872 L14.2669977,15.7660662 C13.0875038,16.7308652 11.6100875,17.241369 9.99381506,17.2430826 C6.21176881,17.2398267 3.13602509,14.2124486 3.13602509,10.491889 M36.9822727,0.65745138 C36.967638,0.65745138 36.9530032,0.658308217 36.9383684,0.658308217 L36.9383684,0.65745138 L27.9773509,0.65745138 C27.1114596,0.65745138 26.4093384,1.347891 26.4093384,2.1997588 C26.4093384,3.0516266 27.1114596,3.74206622 27.9773509,3.74206622 L29.5420532,3.74206622 L23.4839496,8.51053803 L17.4267172,3.74172349 L18.9428111,3.74206622 L18.9431595,3.74206622 C19.8090509,3.74206622 20.5109979,3.05179797 20.5111721,2.20010154 C20.5113463,1.34823374 19.8093994,0.657622747 18.9433338,0.65745138 L10.0000871,0.655737705 L9.99991289,0.655737705 L9.99991289,0.655737705 L9.98614922,0.655737705 L9.98580078,0.655737705 L9.98580078,0.65608044 C4.47841805,0.66362061 7.27595761e-12,5.07273479 7.27595761e-12,10.491889 C7.27595761e-12,15.9108718 4.47841805,20.3199859 9.98580078,20.3275261 L9.98580078,20.3278689 L18.9503027,20.3278689 C19.8163683,20.3278689 20.5183153,19.6374292 20.5183153,18.7855614 C20.5183153,17.9336936 19.8163683,17.243254 18.9503027,17.243254 L17.4267172,17.243254 L23.4842981,12.4725544 L29.5429243,17.243254 L27.9810096,17.243254 C27.114944,17.243254 26.4129971,17.9336936 26.4129971,18.7855614 C26.4129971,19.6374292 27.114944,20.3278689 27.9810096,20.3278689 L36.9383684,20.3278689 L36.9383684,20.327012 C36.9530032,20.327012 36.967638,20.3278689 36.9822727,20.3278689 C42.496276,20.3278689 46.9821856,15.9154987 46.9821856,10.491889 C46.9821856,5.06913607 42.496276,0.65745138 36.9822727,0.65745138" id="DSX-Logo" stroke="none" fill="#41D6C3" fill-rule="evenodd"></path>
</svg>
